<svg xmlns="http://www.w3.org/2000/svg" viewBox="0 0 240 300" role="img" aria-labelledby="title desc">
  <title id="title">Scout of Saint Mary logo</title>
  <desc id="desc">Blue and gold Scout of Saint Mary emblem.</desc>
  <rect width="240" height="300" fill="transparent"/>
  <circle cx="120" cy="94" r="68" fill="none" stroke="#163c91" stroke-width="4"/>
  <circle cx="120" cy="94" r="63" fill="none" stroke="#163c91" stroke-width="1.5" stroke-dasharray="4 4"/>
  <path d="M70 43h100v24h-32v79h32v24H70v-24h32V67H70z" fill="#163c91"/>
  <path d="M120 52c-15 15-27 33-27 53 0 23 16 39 27 48 11-9 27-25 27-48 0-20-12-38-27-53z" fill="#f4c522" stroke="#163c91" stroke-width="3"/>
  <path d="M120 58c-8 14-13 28-13 46 0 15 6 29 13 40 7-11 13-25 13-40 0-18-5-32-13-46z" fill="#244aa5"/>
  <path d="M94 98c-15-16-36-11-48 2 5 21 26 31 45 20-11-3-17-13-14-22 3-9 12-14 17 0z" fill="#f4c522" stroke="#163c91" stroke-width="3" stroke-linejoin="round"/>
  <path d="M146 98c15-16 36-11 48 2-5 21-26 31-45 20 11-3 17-13 14-22-3-9-12-14-17 0z" fill="#f4c522" stroke="#163c91" stroke-width="3" stroke-linejoin="round"/>
  <circle cx="85" cy="105" r="6" fill="#163c91"/>
  <circle cx="155" cy="105" r="6" fill="#163c91"/>
  <path d="M91 139c12 10 46 10 58 0" fill="none" stroke="#163c91" stroke-width="4" stroke-linecap="round"/>
  <path d="M120 124v33" stroke="#163c91" stroke-width="5" stroke-linecap="round"/>
  <path d="M88 153c18 18 46 18 64 0" fill="none" stroke="#f4c522" stroke-width="7" stroke-linecap="round"/>
  <path d="M90 153c18 14 42 14 60 0" fill="none" stroke="#163c91" stroke-width="3" stroke-linecap="round"/>
  <text x="120" y="218" text-anchor="middle" fill="#163c91" font-family="Arial, sans-serif" font-size="18" font-weight="700">SCOUT OF SAINT MARY</text>
</svg>
